<?xml version="1.0" encoding="UTF-8"?>
<svg width="297px" height="220px" viewBox="0 0 297 220" version="1.1" xmlns="http://www.w3.org/2000/svg" xmlns:xlink="http://www.w3.org/1999/xlink">
    <!-- Generator: Sketch 51.2 (57519) - http://www.bohemiancoding.com/sketch -->
    <title>perq-card</title>
    <desc>Created with Sketch.</desc>
    <defs>
        <path d="M7.05809289,0.127450203 C3.19180109,0.127450203 0.0570129725,3.26046262 0.0570129725,7.12456437 L0.0570129725,160.379363 C0.0570129725,164.245058 3.19180109,167.376477 7.05809289,167.376477 L258.838792,167.376477 C262.70349,167.376477 265.838278,164.245058 265.838278,160.379363 L265.838278,7.12456437 C265.838278,3.26046262 262.70349,0.127450203 258.838792,0.127450203 L7.05809289,0.127450203 Z" id="path-1"></path>
        <filter x="-14.7%" y="-14.9%" width="131.6%" height="150.2%" filterUnits="objectBoundingBox" id="filter-3">
            <feMorphology radius="8.5" operator="erode" in="SourceAlpha" result="shadowSpreadOuter1"></feMorphology>
            <feOffset dx="3" dy="17" in="shadowSpreadOuter1" result="shadowOffsetOuter1"></feOffset>
            <feGaussianBlur stdDeviation="14" in="shadowOffsetOuter1" result="shadowBlurOuter1"></feGaussianBlur>
            <feColorMatrix values="0 0 0 0 0.117647059   0 0 0 0 0.250980392   0 0 0 0 0.145098039  0 0 0 0.53 0" type="matrix" in="shadowBlurOuter1"></feColorMatrix>
        </filter>
        <path d="M7.05809289,0.127450203 C3.19180109,0.127450203 0.0570129725,3.26046262 0.0570129725,7.12456437 L0.0570129725,160.379363 C0.0570129725,164.245058 3.19180109,167.376477 7.05809289,167.376477 L258.838792,167.376477 C262.70349,167.376477 265.838278,164.245058 265.838278,160.379363 L265.838278,7.12456437 C265.838278,3.26046262 262.70349,0.127450203 258.838792,0.127450203 L7.05809289,0.127450203 Z" id="path-4"></path>
        <filter x="-14.7%" y="-14.9%" width="131.6%" height="150.2%" filterUnits="objectBoundingBox" id="filter-6">
            <feMorphology radius="8.5" operator="erode" in="SourceAlpha" result="shadowSpreadOuter1"></feMorphology>
            <feOffset dx="3" dy="17" in="shadowSpreadOuter1" result="shadowOffsetOuter1"></feOffset>
            <feGaussianBlur stdDeviation="14" in="shadowOffsetOuter1" result="shadowBlurOuter1"></feGaussianBlur>
            <feColorMatrix values="0 0 0 0 0.117647059   0 0 0 0 0.250980392   0 0 0 0 0.145098039  0 0 0 0.53 0" type="matrix" in="shadowBlurOuter1"></feColorMatrix>
        </filter>
    </defs>
    <g id="mobile" stroke="none" stroke-width="1" fill="none" fill-rule="evenodd">
        <g id="Homepage" transform="translate(-7.000000, -124.000000)">
            <g id="Group-9" transform="translate(-1.000000, 53.000000)">
                <g transform="translate(-221.000000, -16.000000)" id="perq-card">
                    <g transform="translate(222.000000, 70.000000)">
                        <g id="Group-62" stroke-width="1" fill-rule="evenodd" transform="translate(154.102925, 114.506727) rotate(6.000000) translate(-154.102925, -114.506727) translate(20.952701, 30.810524)">
                            <mask id="mask-2" fill="white">
                                <use xlink:href="#path-1"></use>
                            </mask>
                            <g id="Clip-3" fill="black" fill-opacity="1">
                                <use filter="url(#filter-3)" xlink:href="#path-1"></use>
                            </g>
                            <polygon id="Fill-2" fill="#78FF95" mask="url(#mask-2)" points="0.374157271 170.501526 265.745844 170.501526 265.745844 0.127450203 0.374157271 0.127450203"></polygon>
                            <polygon id="Fill-4" fill="#24272A" mask="url(#mask-2)" points="0.0251391736 170.675139 91.898177 170.675139 91.898177 -0.049349176 0.0251391736 -0.049349176"></polygon>
                            <polygon id="Fill-5" fill="#040201" mask="url(#mask-2)" points="162.906148 111.320402 160.1905 101.332034 160.157033 101.332034 157.407918 111.320402 155.758449 111.320402 152.711313 99.4350243 154.325721 99.4350243 156.658883 109.323047 156.692351 109.323047 159.357 99.4350243 161.073405 99.4350243 163.704587 109.323047 163.738054 109.323047 166.154088 99.4350243 167.736622 99.4350243 164.555617 111.320402"></polygon>
                            <path d="M169.461313,108.415636 C169.599964,108.821797 169.791207,109.159468 170.035042,109.431835 C170.28047,109.704201 170.565741,109.911264 170.894041,110.054614 C171.220747,110.199558 171.568172,110.272826 171.93472,110.272826 C172.301269,110.272826 172.648693,110.199558 172.976993,110.054614 C173.3037,109.911264 173.58897,109.704201 173.834399,109.431835 C174.078233,109.159468 174.27107,108.821797 174.408127,108.415636 C174.546778,108.011068 174.6169,107.547567 174.6169,107.025133 C174.6169,106.504292 174.546778,106.040791 174.408127,105.636223 C174.27107,105.230062 174.078233,104.890798 173.834399,104.612061 C173.58897,104.334916 173.3037,104.124668 172.976993,103.979724 C172.648693,103.836373 172.301269,103.763105 171.93472,103.763105 C171.568172,103.763105 171.220747,103.836373 170.894041,103.979724 C170.565741,104.124668 170.28047,104.334916 170.035042,104.612061 C169.791207,104.890798 169.599964,105.230062 169.461313,105.636223 C169.322662,106.040791 169.25254,106.504292 169.25254,107.025133 C169.25254,107.547567 169.322662,108.011068 169.461313,108.415636 M168.020618,105.252361 C168.197517,104.704442 168.465257,104.226606 168.82065,103.822038 C169.174449,103.415877 169.614308,103.09732 170.135444,102.864773 C170.658175,102.630633 171.257402,102.51436 171.93472,102.51436 C172.623194,102.51436 173.225609,102.630633 173.743558,102.864773 C174.25832,103.09732 174.694991,103.415877 175.050384,103.822038 C175.405777,104.226606 175.671923,104.704442 175.850416,105.252361 C176.027316,105.801873 176.116563,106.392797 176.116563,107.025133 C176.116563,107.65747 176.027316,108.246801 175.850416,108.789941 C175.671923,109.334675 175.405777,109.809325 175.050384,110.213893 C174.694991,110.618461 174.25832,110.935426 173.743558,111.163194 C173.225609,111.390963 172.623194,111.504051 171.93472,111.504051 C171.257402,111.504051 170.658175,111.390963 170.135444,111.163194 C169.614308,110.935426 169.174449,110.618461 168.82065,110.213893 C168.465257,109.809325 168.197517,109.334675 168.020618,108.789941 C167.842124,108.246801 167.754471,107.65747 167.754471,107.025133 C167.754471,106.392797 167.842124,105.801873 168.020618,105.252361" id="Fill-6" fill="#040201" mask="url(#mask-2)"></path>
                            <path d="M179.232067,102.714095 L179.232067,104.529873 L179.265535,104.529873 C179.609772,103.830639 180.030506,103.312983 180.530924,102.980091 C181.031343,102.647198 181.664038,102.492698 182.430603,102.514997 L182.430603,104.012217 C181.863249,104.012217 181.380361,104.090263 180.980345,104.246357 C180.581922,104.40245 180.259997,104.628626 180.014569,104.92807 C179.770734,105.229106 179.592241,105.592262 179.482276,106.019129 C179.370718,106.445996 179.314939,106.936574 179.314939,107.492457 L179.314939,111.319925 L177.899742,111.319925 L177.899742,102.714095 L179.232067,102.714095 Z" id="Fill-7" fill="#040201" mask="url(#mask-2)"></path>
                            <polygon id="Fill-8" fill="#040201" mask="url(#mask-2)" points="185.162506 99.4351836 185.162506 106.476896 189.094139 102.714732 190.993818 102.714732 187.57854 105.844559 191.242433 111.320562 189.444751 111.320562 186.494831 106.825716 185.162506 108.058533 185.162506 111.320562 183.745716 111.320562 183.745716 99.4351836"></polygon>
                            <path d="M142.225471,69.3907572 C142.225471,70.110697 142.107538,70.8401936 141.876453,71.5601334 C141.645368,72.2784804 141.267663,72.9410799 140.754495,73.5320039 C140.23814,74.122928 139.541697,74.6103209 138.681105,74.9830331 C137.822106,75.3557453 136.759115,75.5436941 135.520817,75.5436941 L125.780185,75.5436941 L125.780185,63.1581809 L135.75509,63.1581809 C137.144787,63.1581809 138.27312,63.3859495 139.108214,63.8367082 C139.943307,64.2858742 140.599907,64.8449425 141.063671,65.4995781 C141.525841,66.1542136 141.838204,66.8438905 141.992792,67.5494952 C142.14738,68.2582855 142.225471,68.8762869 142.225471,69.3907572 M140.854898,62.9989022 C140.069209,62.4637257 139.438107,62.0703072 138.469144,61.8855439 C137.520898,61.7039662 136.647556,61.6115845 135.873023,61.6115845 L123.996845,61.6115845 L123.996845,89.4662471 L125.780185,89.4662471 L125.780185,77.0902905 L135.24989,77.0902905 C137.9751,77.0902905 139.892309,76.4770674 141.462094,75.0977137 C143.028691,73.7215456 143.822348,71.8213505 143.822348,69.4528759 C143.822348,67.9142435 143.506798,66.5062196 142.910758,65.3848974 C142.364122,64.3607352 141.674054,63.5579705 140.854898,62.9989022" id="Fill-9" fill="#040201" mask="url(#mask-2)"></path>
                            <path d="M146.227545,78.2382123 C146.310417,77.252277 146.516003,76.2774912 146.837928,75.3393396 C147.17101,74.3709249 147.65071,73.5108198 148.264281,72.7845089 C148.874664,72.0613835 149.639635,71.4672739 150.535289,71.0197007 C151.427755,70.575313 152.476403,70.3491373 153.652547,70.3491373 C154.749005,70.3491373 155.738687,70.5689419 156.592905,71.0005872 C157.448716,71.4338253 158.186595,72.019971 158.785822,72.7446892 C159.386643,73.4694074 159.845626,74.3231413 160.153208,75.2788136 C160.451228,76.2090014 160.632909,77.2029006 160.690281,78.2382123 L146.227545,78.2382123 Z M160.177113,71.7969808 C159.44561,70.8954633 158.522863,70.1723379 157.435967,69.6483109 C156.34907,69.1242839 155.082087,68.8582884 153.670077,68.8582884 C152.130573,68.8582884 150.771155,69.1577324 149.631667,69.7454709 C148.493772,70.3348022 147.532777,71.129603 146.774181,72.1091671 C146.017178,73.0871385 145.440262,74.2387236 145.062558,75.530474 C144.684853,76.8158533 144.493611,78.1808719 144.493611,79.587303 C144.493611,81.0462961 144.676885,82.424057 145.04184,83.6823589 C145.408389,84.9486247 145.970961,86.0603902 146.716808,86.9873923 C147.462655,87.9175801 148.406119,88.6598189 149.516921,89.1949954 C150.630911,89.7317647 151.948892,90.0041313 153.437399,90.0041313 C155.866182,90.0041313 157.848732,89.3670164 159.327677,88.1103073 C160.805027,86.8567838 161.780365,85.0298569 162.225005,82.6804957 L162.247317,82.5578511 L160.561193,82.5578511 L160.542068,82.6374905 C160.105397,84.4771597 159.302177,85.9313744 158.153127,86.9635005 C157.00567,87.9908483 155.426324,88.5132825 153.458116,88.5132825 C152.256474,88.5132825 151.187108,88.2807355 150.281892,87.8236056 C149.375083,87.3648829 148.611705,86.7325464 148.014072,85.9457095 C147.411657,85.1556871 146.95108,84.2239065 146.643498,83.1774454 C146.335916,82.1277986 146.179735,81.0112548 146.179735,79.8596696 L146.179735,79.7290611 L162.381186,79.7290611 L162.381186,79.6255299 C162.381186,79.5251843 162.387561,79.3913902 162.400311,79.2257403 C162.414654,79.0489409 162.421029,78.9008117 162.421029,78.7686104 C162.421029,77.4179268 162.229786,76.1309548 161.852081,74.9443283 C161.47119,73.7561091 160.908617,72.6969056 160.177113,71.7969808 Z" id="Fill-10" fill="#040201" mask="url(#mask-2)"></path>
                            <path d="M172.749096,69.5051193 C171.899659,69.7265167 171.118751,70.0514453 170.423902,70.4687556 C169.730647,70.8876586 169.13142,71.3925722 168.645344,71.9707539 C168.22461,72.4692963 167.91384,73.0060656 167.717817,73.5667267 L167.717817,69.3267272 L166.031693,69.3267272 L166.031693,89.5360111 L167.717817,89.5360111 L167.717817,78.4995886 C167.741722,77.7589426 167.807063,77.1106782 167.910653,76.5707233 C168.011056,76.0371396 168.154488,75.5465612 168.332981,75.1117303 C168.509881,74.6816777 168.736184,74.2834809 169.000737,73.9282894 C169.271664,73.5683195 169.591996,73.1908289 169.945795,72.8117455 C170.836668,71.9468621 171.784913,71.3782371 172.761845,71.1249839 C173.745152,70.870138 174.62965,70.7936842 175.391434,70.8940298 L175.507773,70.9099576 L175.507773,69.2120465 L175.407371,69.2088609 C174.492593,69.1849691 173.598532,69.2837219 172.749096,69.5051193" id="Fill-11" fill="#040201" mask="url(#mask-2)"></path>
                            <path d="M192.204863,79.3923459 C192.204863,80.5455238 192.055056,81.6811811 191.760223,82.7706475 C191.466984,83.8553356 191.019157,84.8396781 190.431086,85.6965976 C189.846201,86.5487387 189.078043,87.2384156 188.150515,87.7465147 C187.222988,88.2546138 186.118561,88.5126454 184.869108,88.5126454 C183.568657,88.5126454 182.445105,88.260985 181.530327,87.7656282 C180.612362,87.2686786 179.844203,86.5933368 179.248163,85.7539379 C178.647342,84.9129463 178.207484,83.9365677 177.939744,82.8502869 C177.668817,81.7592276 177.531759,80.596493 177.531759,79.3923459 C177.531759,78.2391679 177.68316,77.1019179 177.977992,76.0140442 C178.271231,74.9277633 178.725433,73.949792 179.32466,73.1088004 C179.922294,72.2694015 180.690453,71.5924669 181.608418,71.0971101 C182.523196,70.6001605 183.633998,70.3500929 184.907356,70.3500929 C186.156809,70.3500929 187.246893,70.6065317 188.148922,71.1146308 C189.054138,71.6259155 189.814328,72.3092212 190.411961,73.14862 C191.012782,73.9896117 191.466984,74.967583 191.760223,76.0522711 C192.055056,77.1417375 192.204863,78.2646525 192.204863,79.3923459 Z M192.241517,69.3259308 L192.241517,73.4432857 C191.425548,71.958808 190.40718,70.8231507 189.208725,70.0633912 C187.951304,69.2638121 186.39905,68.8592441 184.596587,68.8592441 C183.080988,68.8592441 181.755038,69.1507242 180.653798,69.7273131 C179.554152,70.3023093 178.63778,71.0859606 177.930182,72.0543752 C177.224177,73.0211971 176.695072,74.152076 176.35721,75.4151562 C176.017754,76.6750509 175.845635,78.0145849 175.845635,79.3923459 C175.845635,80.8752307 176.032097,82.2784763 176.395458,83.5654483 C176.760413,84.8571987 177.321392,85.9880776 178.064052,86.9278221 C178.808305,87.8707521 179.754957,88.6257332 180.878508,89.1752448 C182.00206,89.7247564 183.337572,90.0034942 184.849983,90.0034942 C185.657984,90.0034942 186.464391,89.8904063 187.248487,89.6690089 C188.030989,89.4460187 188.76568,89.1210901 189.431842,88.7037798 C190.098004,88.2848768 190.689263,87.7544786 191.188088,87.1237349 C191.632728,86.5598882 191.986527,85.9275517 192.244705,85.2378749 L192.244705,96.696386 L193.89258,96.696386 L193.89258,69.3259308 L192.241517,69.3259308 Z" id="Fill-12" fill="#040201" mask="url(#mask-2)"></path>
                            <path d="M218.429987,56.050368 C210.777088,56.050368 204.552135,62.2717948 204.552135,69.9203589 C204.552135,77.5689231 210.777088,83.7919427 218.429987,83.7919427 C226.082886,83.7919427 232.307839,77.5689231 232.307839,69.9203589 C232.307839,62.2717948 226.082886,56.050368 218.429987,56.050368 M218.429987,85.2827915 C209.954744,85.2827915 203.058847,78.3908013 203.058847,69.9203589 C203.058847,61.4499166 209.954744,54.5579264 218.429987,54.5579264 C226.90523,54.5579264 233.801126,61.4499166 233.801126,69.9203589 C233.801126,78.3908013 226.90523,85.2827915 218.429987,85.2827915" id="Fill-13" fill="#040201" mask="url(#mask-2)"></path>
                            <polygon id="Fill-14" fill="#040201" mask="url(#mask-2)" points="219.561507 71.0512379 211.88789 71.0512379 211.88789 69.5587963 218.068219 69.5587963 218.068219 60.3047026 219.561507 60.3047026"></polygon>
                            <path d="M47.2904767,111.511059 C32.7161822,111.511059 20.9021587,99.7037275 20.9021587,85.1392813 C20.9021587,70.5732424 32.7161822,58.7659109 47.2904767,58.7659109 C61.8631776,58.7659109 73.6772011,70.5732424 73.6772011,85.1392813 C73.6772011,99.7037275 61.8631776,111.511059 47.2904767,111.511059 M47.2904767,114.056333 C63.2704058,114.056333 76.2239176,101.110159 76.2239176,85.1392813 C76.2239176,69.1684041 63.2704058,56.2222298 47.2904767,56.2222298 C31.3105477,56.2222298 18.3570358,69.1684041 18.3570358,85.1392813 C18.3570358,101.110159 31.3105477,114.056333 47.2904767,114.056333" id="Fill-15" fill="#C8C8C8" mask="url(#mask-2)"></path>
                            <polygon id="Fill-16" fill="#C8C8C8" mask="url(#mask-2)" points="28.194087 70.9695279 66.3868665 70.9695279 66.3868665 79.7887906 52.2094008 79.7887906 52.2094008 103.385933 42.4289256 103.385933 42.4289256 79.7887906 28.2514598 79.7887906"></polygon>
                        </g>
                        <g id="Group-62-Copy" stroke-width="1" fill-rule="evenodd" transform="translate(153.171293, 107.883812) rotate(-3.000000) translate(-153.171293, -107.883812) translate(20.021069, 24.187609)">
                            <mask id="mask-5" fill="white">
                                <use xlink:href="#path-4"></use>
                            </mask>
                            <g id="Clip-3" fill="black" fill-opacity="1">
                                <use filter="url(#filter-6)" xlink:href="#path-4"></use>
                            </g>
                            <polygon id="Fill-2" fill="#78FF95" mask="url(#mask-5)" points="0.374157271 170.501526 265.745844 170.501526 265.745844 0.127450203 0.374157271 0.127450203"></polygon>
                            <polygon id="Fill-4" fill="#24272A" mask="url(#mask-5)" points="0.0251391736 170.675139 91.898177 170.675139 91.898177 -0.049349176 0.0251391736 -0.049349176"></polygon>
                            <polygon id="Fill-5" fill="#040201" mask="url(#mask-5)" points="162.906148 111.320402 160.1905 101.332034 160.157033 101.332034 157.407918 111.320402 155.758449 111.320402 152.711313 99.4350243 154.325721 99.4350243 156.658883 109.323047 156.692351 109.323047 159.357 99.4350243 161.073405 99.4350243 163.704587 109.323047 163.738054 109.323047 166.154088 99.4350243 167.736622 99.4350243 164.555617 111.320402"></polygon>
                            <path d="M169.461313,108.415636 C169.599964,108.821797 169.791207,109.159468 170.035042,109.431835 C170.28047,109.704201 170.565741,109.911264 170.894041,110.054614 C171.220747,110.199558 171.568172,110.272826 171.93472,110.272826 C172.301269,110.272826 172.648693,110.199558 172.976993,110.054614 C173.3037,109.911264 173.58897,109.704201 173.834399,109.431835 C174.078233,109.159468 174.27107,108.821797 174.408127,108.415636 C174.546778,108.011068 174.6169,107.547567 174.6169,107.025133 C174.6169,106.504292 174.546778,106.040791 174.408127,105.636223 C174.27107,105.230062 174.078233,104.890798 173.834399,104.612061 C173.58897,104.334916 173.3037,104.124668 172.976993,103.979724 C172.648693,103.836373 172.301269,103.763105 171.93472,103.763105 C171.568172,103.763105 171.220747,103.836373 170.894041,103.979724 C170.565741,104.124668 170.28047,104.334916 170.035042,104.612061 C169.791207,104.890798 169.599964,105.230062 169.461313,105.636223 C169.322662,106.040791 169.25254,106.504292 169.25254,107.025133 C169.25254,107.547567 169.322662,108.011068 169.461313,108.415636 M168.020618,105.252361 C168.197517,104.704442 168.465257,104.226606 168.82065,103.822038 C169.174449,103.415877 169.614308,103.09732 170.135444,102.864773 C170.658175,102.630633 171.257402,102.51436 171.93472,102.51436 C172.623194,102.51436 173.225609,102.630633 173.743558,102.864773 C174.25832,103.09732 174.694991,103.415877 175.050384,103.822038 C175.405777,104.226606 175.671923,104.704442 175.850416,105.252361 C176.027316,105.801873 176.116563,106.392797 176.116563,107.025133 C176.116563,107.65747 176.027316,108.246801 175.850416,108.789941 C175.671923,109.334675 175.405777,109.809325 175.050384,110.213893 C174.694991,110.618461 174.25832,110.935426 173.743558,111.163194 C173.225609,111.390963 172.623194,111.504051 171.93472,111.504051 C171.257402,111.504051 170.658175,111.390963 170.135444,111.163194 C169.614308,110.935426 169.174449,110.618461 168.82065,110.213893 C168.465257,109.809325 168.197517,109.334675 168.020618,108.789941 C167.842124,108.246801 167.754471,107.65747 167.754471,107.025133 C167.754471,106.392797 167.842124,105.801873 168.020618,105.252361" id="Fill-6" fill="#040201" mask="url(#mask-5)"></path>
                            <path d="M179.232067,102.714095 L179.232067,104.529873 L179.265535,104.529873 C179.609772,103.830639 180.030506,103.312983 180.530924,102.980091 C181.031343,102.647198 181.664038,102.492698 182.430603,102.514997 L182.430603,104.012217 C181.863249,104.012217 181.380361,104.090263 180.980345,104.246357 C180.581922,104.40245 180.259997,104.628626 180.014569,104.92807 C179.770734,105.229106 179.592241,105.592262 179.482276,106.019129 C179.370718,106.445996 179.314939,106.936574 179.314939,107.492457 L179.314939,111.319925 L177.899742,111.319925 L177.899742,102.714095 L179.232067,102.714095 Z" id="Fill-7" fill="#040201" mask="url(#mask-5)"></path>
                            <polygon id="Fill-8" fill="#040201" mask="url(#mask-5)" points="185.162506 99.4351836 185.162506 106.476896 189.094139 102.714732 190.993818 102.714732 187.57854 105.844559 191.242433 111.320562 189.444751 111.320562 186.494831 106.825716 185.162506 108.058533 185.162506 111.320562 183.745716 111.320562 183.745716 99.4351836"></polygon>
                            <path d="M142.225471,69.3907572 C142.225471,70.110697 142.107538,70.8401936 141.876453,71.5601334 C141.645368,72.2784804 141.267663,72.9410799 140.754495,73.5320039 C140.23814,74.122928 139.541697,74.6103209 138.681105,74.9830331 C137.822106,75.3557453 136.759115,75.5436941 135.520817,75.5436941 L125.780185,75.5436941 L125.780185,63.1581809 L135.75509,63.1581809 C137.144787,63.1581809 138.27312,63.3859495 139.108214,63.8367082 C139.943307,64.2858742 140.599907,64.8449425 141.063671,65.4995781 C141.525841,66.1542136 141.838204,66.8438905 141.992792,67.5494952 C142.14738,68.2582855 142.225471,68.8762869 142.225471,69.3907572 M140.854898,62.9989022 C140.069209,62.4637257 139.438107,62.0703072 138.469144,61.8855439 C137.520898,61.7039662 136.647556,61.6115845 135.873023,61.6115845 L123.996845,61.6115845 L123.996845,89.4662471 L125.780185,89.4662471 L125.780185,77.0902905 L135.24989,77.0902905 C137.9751,77.0902905 139.892309,76.4770674 141.462094,75.0977137 C143.028691,73.7215456 143.822348,71.8213505 143.822348,69.4528759 C143.822348,67.9142435 143.506798,66.5062196 142.910758,65.3848974 C142.364122,64.3607352 141.674054,63.5579705 140.854898,62.9989022" id="Fill-9" fill="#040201" mask="url(#mask-5)"></path>
                            <path d="M146.227545,78.2382123 C146.310417,77.252277 146.516003,76.2774912 146.837928,75.3393396 C147.17101,74.3709249 147.65071,73.5108198 148.264281,72.7845089 C148.874664,72.0613835 149.639635,71.4672739 150.535289,71.0197007 C151.427755,70.575313 152.476403,70.3491373 153.652547,70.3491373 C154.749005,70.3491373 155.738687,70.5689419 156.592905,71.0005872 C157.448716,71.4338253 158.186595,72.019971 158.785822,72.7446892 C159.386643,73.4694074 159.845626,74.3231413 160.153208,75.2788136 C160.451228,76.2090014 160.632909,77.2029006 160.690281,78.2382123 L146.227545,78.2382123 Z M160.177113,71.7969808 C159.44561,70.8954633 158.522863,70.1723379 157.435967,69.6483109 C156.34907,69.1242839 155.082087,68.8582884 153.670077,68.8582884 C152.130573,68.8582884 150.771155,69.1577324 149.631667,69.7454709 C148.493772,70.3348022 147.532777,71.129603 146.774181,72.1091671 C146.017178,73.0871385 145.440262,74.2387236 145.062558,75.530474 C144.684853,76.8158533 144.493611,78.1808719 144.493611,79.587303 C144.493611,81.0462961 144.676885,82.424057 145.04184,83.6823589 C145.408389,84.9486247 145.970961,86.0603902 146.716808,86.9873923 C147.462655,87.9175801 148.406119,88.6598189 149.516921,89.1949954 C150.630911,89.7317647 151.948892,90.0041313 153.437399,90.0041313 C155.866182,90.0041313 157.848732,89.3670164 159.327677,88.1103073 C160.805027,86.8567838 161.780365,85.0298569 162.225005,82.6804957 L162.247317,82.5578511 L160.561193,82.5578511 L160.542068,82.6374905 C160.105397,84.4771597 159.302177,85.9313744 158.153127,86.9635005 C157.00567,87.9908483 155.426324,88.5132825 153.458116,88.5132825 C152.256474,88.5132825 151.187108,88.2807355 150.281892,87.8236056 C149.375083,87.3648829 148.611705,86.7325464 148.014072,85.9457095 C147.411657,85.1556871 146.95108,84.2239065 146.643498,83.1774454 C146.335916,82.1277986 146.179735,81.0112548 146.179735,79.8596696 L146.179735,79.7290611 L162.381186,79.7290611 L162.381186,79.6255299 C162.381186,79.5251843 162.387561,79.3913902 162.400311,79.2257403 C162.414654,79.0489409 162.421029,78.9008117 162.421029,78.7686104 C162.421029,77.4179268 162.229786,76.1309548 161.852081,74.9443283 C161.47119,73.7561091 160.908617,72.6969056 160.177113,71.7969808 Z" id="Fill-10" fill="#040201" mask="url(#mask-5)"></path>
                            <path d="M172.749096,69.5051193 C171.899659,69.7265167 171.118751,70.0514453 170.423902,70.4687556 C169.730647,70.8876586 169.13142,71.3925722 168.645344,71.9707539 C168.22461,72.4692963 167.91384,73.0060656 167.717817,73.5667267 L167.717817,69.3267272 L166.031693,69.3267272 L166.031693,89.5360111 L167.717817,89.5360111 L167.717817,78.4995886 C167.741722,77.7589426 167.807063,77.1106782 167.910653,76.5707233 C168.011056,76.0371396 168.154488,75.5465612 168.332981,75.1117303 C168.509881,74.6816777 168.736184,74.2834809 169.000737,73.9282894 C169.271664,73.5683195 169.591996,73.1908289 169.945795,72.8117455 C170.836668,71.9468621 171.784913,71.3782371 172.761845,71.1249839 C173.745152,70.870138 174.62965,70.7936842 175.391434,70.8940298 L175.507773,70.9099576 L175.507773,69.2120465 L175.407371,69.2088609 C174.492593,69.1849691 173.598532,69.2837219 172.749096,69.5051193" id="Fill-11" fill="#040201" mask="url(#mask-5)"></path>
                            <path d="M192.204863,79.3923459 C192.204863,80.5455238 192.055056,81.6811811 191.760223,82.7706475 C191.466984,83.8553356 191.019157,84.8396781 190.431086,85.6965976 C189.846201,86.5487387 189.078043,87.2384156 188.150515,87.7465147 C187.222988,88.2546138 186.118561,88.5126454 184.869108,88.5126454 C183.568657,88.5126454 182.445105,88.260985 181.530327,87.7656282 C180.612362,87.2686786 179.844203,86.5933368 179.248163,85.7539379 C178.647342,84.9129463 178.207484,83.9365677 177.939744,82.8502869 C177.668817,81.7592276 177.531759,80.596493 177.531759,79.3923459 C177.531759,78.2391679 177.68316,77.1019179 177.977992,76.0140442 C178.271231,74.9277633 178.725433,73.949792 179.32466,73.1088004 C179.922294,72.2694015 180.690453,71.5924669 181.608418,71.0971101 C182.523196,70.6001605 183.633998,70.3500929 184.907356,70.3500929 C186.156809,70.3500929 187.246893,70.6065317 188.148922,71.1146308 C189.054138,71.6259155 189.814328,72.3092212 190.411961,73.14862 C191.012782,73.9896117 191.466984,74.967583 191.760223,76.0522711 C192.055056,77.1417375 192.204863,78.2646525 192.204863,79.3923459 Z M192.241517,69.3259308 L192.241517,73.4432857 C191.425548,71.958808 190.40718,70.8231507 189.208725,70.0633912 C187.951304,69.2638121 186.39905,68.8592441 184.596587,68.8592441 C183.080988,68.8592441 181.755038,69.1507242 180.653798,69.7273131 C179.554152,70.3023093 178.63778,71.0859606 177.930182,72.0543752 C177.224177,73.0211971 176.695072,74.152076 176.35721,75.4151562 C176.017754,76.6750509 175.845635,78.0145849 175.845635,79.3923459 C175.845635,80.8752307 176.032097,82.2784763 176.395458,83.5654483 C176.760413,84.8571987 177.321392,85.9880776 178.064052,86.9278221 C178.808305,87.8707521 179.754957,88.6257332 180.878508,89.1752448 C182.00206,89.7247564 183.337572,90.0034942 184.849983,90.0034942 C185.657984,90.0034942 186.464391,89.8904063 187.248487,89.6690089 C188.030989,89.4460187 188.76568,89.1210901 189.431842,88.7037798 C190.098004,88.2848768 190.689263,87.7544786 191.188088,87.1237349 C191.632728,86.5598882 191.986527,85.9275517 192.244705,85.2378749 L192.244705,96.696386 L193.89258,96.696386 L193.89258,69.3259308 L192.241517,69.3259308 Z" id="Fill-12" fill="#040201" mask="url(#mask-5)"></path>
                            <path d="M218.429987,56.050368 C210.777088,56.050368 204.552135,62.2717948 204.552135,69.9203589 C204.552135,77.5689231 210.777088,83.7919427 218.429987,83.7919427 C226.082886,83.7919427 232.307839,77.5689231 232.307839,69.9203589 C232.307839,62.2717948 226.082886,56.050368 218.429987,56.050368 M218.429987,85.2827915 C209.954744,85.2827915 203.058847,78.3908013 203.058847,69.9203589 C203.058847,61.4499166 209.954744,54.5579264 218.429987,54.5579264 C226.90523,54.5579264 233.801126,61.4499166 233.801126,69.9203589 C233.801126,78.3908013 226.90523,85.2827915 218.429987,85.2827915" id="Fill-13" fill="#040201" mask="url(#mask-5)"></path>
                            <polygon id="Fill-14" fill="#040201" mask="url(#mask-5)" points="219.561507 71.0512379 211.88789 71.0512379 211.88789 69.5587963 218.068219 69.5587963 218.068219 60.3047026 219.561507 60.3047026"></polygon>
                            <path d="M47.2904767,111.511059 C32.7161822,111.511059 20.9021587,99.7037275 20.9021587,85.1392813 C20.9021587,70.5732424 32.7161822,58.7659109 47.2904767,58.7659109 C61.8631776,58.7659109 73.6772011,70.5732424 73.6772011,85.1392813 C73.6772011,99.7037275 61.8631776,111.511059 47.2904767,111.511059 M47.2904767,114.056333 C63.2704058,114.056333 76.2239176,101.110159 76.2239176,85.1392813 C76.2239176,69.1684041 63.2704058,56.2222298 47.2904767,56.2222298 C31.3105477,56.2222298 18.3570358,69.1684041 18.3570358,85.1392813 C18.3570358,101.110159 31.3105477,114.056333 47.2904767,114.056333" id="Fill-15" fill="#C8C8C8" mask="url(#mask-5)"></path>
                            <polygon id="Fill-16" fill="#C8C8C8" mask="url(#mask-5)" points="28.194087 70.9695279 66.3868665 70.9695279 66.3868665 79.7887906 52.2094008 79.7887906 52.2094008 103.385933 42.4289256 103.385933 42.4289256 79.7887906 28.2514598 79.7887906"></polygon>
                        </g>
                        <path d="M23.7511211,31.0253165 L120.774734,25.9746835" id="Line-2" stroke="#78FF95" stroke-width="0.1" stroke-linecap="square"></path>
                    </g>
                </g>
            </g>
        </g>
    </g>
</svg>